<?xml version="1.0" standalone="no"?>
<!DOCTYPE svg PUBLIC "-//W3C//DTD SVG 20010904//EN"
 "http://www.w3.org/TR/2001/REC-SVG-20010904/DTD/svg10.dtd">
<svg version="1.0" xmlns="http://www.w3.org/2000/svg"
 width="500.000000pt" height="500.000000pt" viewBox="0 0 500.000000 500.000000"
 preserveAspectRatio="xMidYMid meet">

<g transform="translate(0.000000,500.000000) scale(0.100000,-0.100000)"
fill="#000000" stroke="none">
<path d="M2385 3210 c-11 -5 -38 -9 -59 -9 -35 -1 -47 -9 -105 -67 -36 -36
-79 -77 -94 -92 -27 -25 -28 -29 -22 -87 8 -70 37 -152 66 -189 27 -35 74 -35
101 -1 23 30 41 32 65 7 10 -11 32 -26 50 -34 27 -13 31 -14 26 -1 -3 8 0 25
7 38 11 20 10 28 -4 50 -9 14 -23 25 -31 25 -10 0 -15 10 -15 30 0 35 10 38
28 10 13 -21 56 -27 67 -9 4 6 13 8 20 5 17 -6 30 10 39 47 4 16 15 38 26 49
l18 20 11 -20 c6 -12 11 -27 11 -34 0 -7 14 -40 31 -73 21 -41 31 -76 32 -111
l2 -52 27 14 c36 19 41 18 85 -11 48 -34 73 -29 89 15 20 55 17 178 -5 242
-39 114 -94 169 -181 183 l-45 7 19 -21 c20 -22 16 -25 -30 -22 -12 1 -24 -5
-27 -13 -9 -22 -37 -20 -37 3 0 24 -19 39 -58 47 -25 5 -33 3 -39 -12 -10 -28
-25 -40 -56 -46 -22 -4 -27 -1 -27 13 0 20 16 26 22 8 2 -5 14 4 27 21 17 24
20 35 12 43 -9 9 -14 8 -21 -3 -5 -8 -12 -11 -15 -8 -12 12 7 30 26 25 12 -3
19 0 19 9 0 15 -24 17 -55 4z m269 -135 c-4 -8 -12 -15 -20 -15 -20 0 -17 18
4 23 9 3 18 5 19 6 1 0 0 -6 -3 -14z"/>
<path d="M2460 3180 c0 -5 7 -10 15 -10 8 0 15 5 15 10 0 6 -7 10 -15 10 -8 0
-15 -4 -15 -10z"/>
<path d="M2525 2803 c-36 -9 -47 -25 -43 -65 3 -34 2 -37 -19 -32 -36 9 -27
-9 19 -39 45 -29 85 -34 109 -14 21 17 43 89 35 115 -9 26 -61 44 -101 35z"/>
<path d="M1838 2443 c-16 -4 -18 -21 -18 -185 l0 -180 89 4 c96 3 123 15 165
71 25 34 34 143 16 187 -32 77 -157 128 -252 103z m141 -78 c37 -19 55 -63 49
-125 -6 -57 -27 -87 -72 -98 -63 -17 -66 -12 -66 119 l0 119 30 0 c17 0 44 -7
59 -15z"/>
<path d="M3283 2443 c-23 -4 -23 -6 -23 -184 l0 -179 35 0 35 0 0 70 c0 68 1
70 25 70 21 0 30 -10 56 -70 31 -69 32 -70 70 -70 l39 0 -29 58 c-44 88 -45
96 -16 128 32 35 35 99 5 137 -28 36 -121 55 -197 40z m115 -64 c38 -13 49
-42 28 -74 -13 -20 -25 -25 -56 -25 l-40 0 0 49 c0 45 6 57 31 60 3 1 20 -4
37 -10z"/>
<path d="M1525 2269 c-33 -94 -62 -176 -64 -181 -2 -5 14 -8 35 -6 33 3 39 7
49 38 l12 35 63 0 63 0 12 -35 c10 -30 16 -35 48 -38 20 -2 37 0 37 5 0 4 -28
86 -62 181 l-62 172 -36 0 -35 0 -60 -171z m114 29 c7 -24 15 -51 17 -60 5
-15 -1 -18 -35 -18 -23 0 -41 3 -41 7 0 16 34 113 40 113 4 0 12 -19 19 -42z"/>
<path d="M2170 2260 l0 -180 35 0 35 0 0 113 c1 126 2 126 63 21 l29 -48 44
80 44 79 0 -122 0 -123 35 0 35 0 0 180 0 180 -38 0 c-36 0 -38 -2 -77 -75
-22 -41 -42 -75 -45 -75 -3 0 -24 34 -48 75 -40 71 -44 75 -77 75 l-35 0 0
-180z"/>
<path d="M2768 2353 l45 -87 -20 -36 c-10 -19 -34 -61 -52 -92 l-33 -58 39 0
c38 0 40 2 68 60 16 33 31 60 35 60 3 0 19 -27 35 -60 29 -58 31 -59 72 -60
l42 0 -51 92 -50 91 22 46 c12 25 35 65 51 89 l28 42 -42 0 c-41 0 -42 -1 -66
-55 -13 -30 -26 -55 -30 -55 -4 0 -19 25 -34 55 -26 53 -29 55 -65 55 l-39 0
45 -87z"/>
<path d="M3120 2302 c0 -94 -4 -142 -12 -150 -17 -17 -59 -15 -86 4 -21 15
-22 14 -22 -20 0 -42 20 -56 80 -56 94 0 110 33 110 220 l0 140 -35 0 -35 0 0
-138z"/>
<path d="M1110 1760 c0 -46 2 -50 23 -50 30 0 47 18 47 50 0 32 -17 50 -47 50
-21 0 -23 -4 -23 -50z m50 21 c13 -25 13 -27 -6 -45 -20 -21 -34 -12 -34 23 0
44 21 56 40 22z"/>
<path d="M1220 1760 c0 -49 1 -50 30 -50 17 0 30 5 30 10 0 6 -9 10 -20 10
-11 0 -20 7 -20 15 0 8 8 15 17 15 15 0 14 2 -3 14 -18 14 -18 15 6 25 24 10
24 10 -7 10 -33 1 -33 1 -33 -49z"/>
<path d="M1316 1795 c-6 -17 19 -45 40 -45 8 0 14 -4 14 -10 0 -5 -14 -10 -31
-10 -17 0 -28 -4 -24 -10 11 -17 54 -11 64 9 11 20 3 32 -32 44 -24 9 -11 30
14 22 11 -4 19 -2 19 4 0 17 -57 13 -64 -4z"/>
<path d="M1420 1760 c0 -49 1 -50 30 -50 17 0 30 5 30 10 0 6 -9 10 -20 10
-11 0 -20 7 -20 15 0 8 8 15 17 15 15 0 14 2 -3 14 -18 14 -18 15 6 25 24 10
24 10 -7 10 -33 1 -33 1 -33 -49z"/>
<path d="M1520 1760 c0 -27 5 -50 10 -50 6 0 10 15 10 33 l0 32 21 -32 c12
-18 23 -33 25 -33 2 0 3 24 3 53 -1 46 -2 48 -8 17 l-6 -35 -20 33 c-11 17
-23 32 -27 32 -4 0 -8 -22 -8 -50z"/>
<path d="M1648 1760 c9 -27 19 -50 23 -50 4 0 14 21 23 47 19 54 18 53 7 53
-4 0 -13 -15 -18 -32 l-10 -33 -13 33 c-19 52 -30 37 -12 -18z"/>
<path d="M1752 1798 c-20 -20 -15 -66 9 -78 47 -26 100 25 72 69 -13 20 -64
26 -81 9z m58 -13 c19 -23 8 -50 -20 -50 -19 0 -26 6 -28 24 -5 35 26 53 48
26z"/>
<path d="M1880 1760 c0 -43 3 -50 20 -50 11 0 20 5 20 10 0 6 -4 10 -10 10 -5
0 -10 18 -10 40 0 22 -4 40 -10 40 -5 0 -10 -22 -10 -50z"/>
<path d="M1968 1760 c9 -27 19 -50 23 -50 4 0 14 21 23 47 19 54 18 53 7 53
-4 0 -13 -15 -18 -32 l-10 -33 -13 33 c-19 52 -30 37 -12 -18z"/>
<path d="M2070 1760 c0 -27 5 -50 10 -50 6 0 10 23 10 50 0 28 -4 50 -10 50
-5 0 -10 -22 -10 -50z"/>
<path d="M2141 1758 c2 -49 2 -50 9 -18 5 28 8 31 15 17 7 -17 9 -17 26 -2 17
16 18 15 22 -17 3 -24 4 -18 5 20 1 28 -1 52 -4 52 -3 0 -14 -10 -24 -22 l-17
-22 -7 22 c-13 40 -26 23 -25 -30z"/>
<path d="M2270 1760 c0 -47 2 -50 25 -50 14 0 25 5 25 10 0 6 -9 10 -20 10
-24 0 -27 18 -5 26 14 6 13 8 -2 19 -17 13 -16 14 7 24 l25 10 -27 0 c-27 1
-28 -1 -28 -49z"/>
<path d="M2360 1760 c0 -27 5 -50 10 -50 6 0 10 15 10 33 l0 32 21 -32 c12
-18 25 -33 30 -33 5 0 9 23 9 50 0 28 -4 50 -10 50 -5 0 -10 -15 -10 -32 l0
-33 -21 33 c-12 17 -25 32 -30 32 -5 0 -9 -22 -9 -50z"/>
<path d="M2483 1803 c13 -3 17 -15 17 -49 0 -24 5 -44 10 -44 6 0 10 20 10 44
0 26 5 46 13 49 6 3 -6 5 -28 5 -22 0 -32 -2 -22 -5z"/>
<path d="M2582 1798 c-20 -20 -15 -66 9 -78 47 -26 100 25 72 69 -13 20 -64
26 -81 9z m58 -13 c19 -23 8 -50 -20 -50 -19 0 -26 6 -28 24 -5 35 26 53 48
26z"/>
<path d="M2780 1760 c0 -46 2 -50 23 -50 30 0 47 18 47 50 0 32 -17 50 -47 50
-21 0 -23 -4 -23 -50z m50 21 c13 -25 13 -27 -6 -45 -20 -21 -34 -12 -34 23 0
44 21 56 40 22z"/>
<path d="M2890 1760 c0 -49 1 -50 30 -50 17 0 30 5 30 10 0 6 -9 10 -20 10
-11 0 -20 7 -20 15 0 8 8 15 17 15 15 0 14 2 -3 14 -18 14 -18 15 6 25 24 10
24 10 -7 10 -33 1 -33 1 -33 -49z"/>
<path d="M3056 1795 c-6 -17 19 -45 40 -45 8 0 14 -4 14 -10 0 -5 -14 -10 -31
-10 -17 0 -28 -4 -24 -10 11 -17 54 -11 64 9 11 20 3 32 -32 44 -24 9 -11 30
14 22 11 -4 19 -2 19 4 0 17 -57 13 -64 -4z"/>
<path d="M3172 1798 c-20 -20 -15 -66 9 -78 47 -26 100 25 72 69 -13 20 -64
26 -81 9z m58 -13 c19 -23 8 -50 -20 -50 -19 0 -26 6 -28 24 -5 35 26 53 48
26z"/>
<path d="M3300 1760 c0 -27 5 -50 10 -50 6 0 10 11 10 24 0 15 7 26 18 29 16
4 16 5 0 6 -10 0 -18 7 -18 15 0 8 8 17 18 19 10 3 6 5 -10 6 -27 1 -28 -1
-28 -49z"/>
<path d="M3393 1798 c9 -7 18 -31 20 -53 l4 -40 1 42 c1 28 8 45 20 52 14 8 9
10 -22 11 -34 0 -37 -2 -23 -12z"/>
<path d="M3473 1804 c3 -5 10 -28 16 -51 14 -51 25 -54 38 -10 l11 32 7 -33
c10 -44 26 -36 41 21 13 53 2 65 -13 15 l-11 -33 -7 33 c-8 36 -28 38 -33 4
-2 -12 -7 -22 -12 -22 -5 0 -10 10 -12 22 -2 12 -9 23 -17 26 -8 3 -11 1 -8
-4z"/>
<path d="M3637 1764 c-9 -26 -14 -50 -11 -53 4 -3 9 0 11 7 6 14 39 16 48 2 3
-5 10 -10 15 -10 12 0 -22 92 -35 97 -6 2 -18 -18 -28 -43z m29 -11 c-10 -10
-19 5 -10 18 6 11 8 11 12 0 2 -7 1 -15 -2 -18z"/>
<path d="M3740 1760 c0 -27 5 -50 10 -50 6 0 10 9 10 20 0 11 4 20 9 20 5 0
11 -9 14 -20 3 -11 10 -20 16 -20 9 0 9 5 1 20 -7 12 -7 27 -2 38 14 26 3 42
-29 42 -28 0 -29 -1 -29 -50z m47 23 c2 -6 -3 -13 -12 -16 -10 -5 -15 0 -15
14 0 21 21 22 27 2z"/>
<path d="M3840 1760 c0 -49 1 -50 30 -50 17 0 30 5 30 10 0 6 -9 10 -20 10
-11 0 -20 7 -20 15 0 8 8 15 17 15 15 0 14 2 -3 14 -18 14 -18 15 6 25 24 10
24 10 -7 10 -33 1 -33 1 -33 -49z"/>
</g>
</svg>
